<svg xmlns="http://www.w3.org/2000/svg" id="Layer_1" data-name="Layer 1" viewBox="0 0 316.03 100.12"><defs><style>.cls-1{fill:#000105;}</style></defs><title>Artboard 16</title><path class="cls-1" d="M33.7,14A13.8,13.8,0,0,0,23.33,9.57a13.89,13.89,0,0,0-10.57,4.59,15.22,15.22,0,0,0-4.25,11,15.53,15.53,0,0,0,4.25,11,13.88,13.88,0,0,0,10.57,4.58,13.9,13.9,0,0,0,8.51-2.66,8.43,8.43,0,0,0,3.85-6.84H23.13v-7H45.46c0,16.22-8.5,24.33-22.13,24.33A22.32,22.32,0,0,1,6.78,41.74,22.89,22.89,0,0,1,0,25.12,22.75,22.75,0,0,1,6.78,8.51,22.37,22.37,0,0,1,23.33,1.6,21.74,21.74,0,0,1,40,8.57Z"/><path class="cls-1" d="M81.68,35.09H58c.53,4.06,4,6.65,8.58,6.65,3.25,0,6.38-1.4,7.77-4l6.19,3.33c-2.66,5.05-8.31,7.51-14.49,7.51a15.94,15.94,0,0,1-11.44-4.52A15.74,15.74,0,0,1,50,32.3a15.34,15.34,0,0,1,4.65-11.63,15.88,15.88,0,0,1,11.44-4.45A15.19,15.19,0,0,1,77.3,20.67,15.73,15.73,0,0,1,81.82,32.3C81.82,33.17,81.75,34.1,81.68,35.09Zm-7.77-5.51c-.6-4.19-3.72-6.58-7.78-6.58-4.32,0-7.58,2.52-8.17,6.58Z"/><path class="cls-1" d="M102.89,48.52A16.06,16.06,0,0,1,91.39,44a15.45,15.45,0,0,1-4.66-11.7,15.31,15.31,0,0,1,4.66-11.63,17,17,0,0,1,22.93,0A15.39,15.39,0,0,1,119,32.3,15.53,15.53,0,0,1,114.32,44,15.91,15.91,0,0,1,102.89,48.52Zm0-24.33a7.86,7.86,0,0,0-8.11,8.11,8.11,8.11,0,1,0,16.21,0A7.86,7.86,0,0,0,102.89,24.19Z"/><path class="cls-1" d="M154.73,31.37V47.92h-8.11V30.84c-.07-4.19-2.46-6.71-5.72-6.71-3.72,0-6.51,2.26-6.51,7.24V47.92h-8.11v-31h8.11v4.59c1.59-3.46,5.45-5.19,8.91-5.19,5,.27,8.24,2.2,9.9,5.79A10.53,10.53,0,0,1,163,16.22c7.64,0,12,4.92,12,14V47.92h-8V31c0-4.32-2.39-6.91-5.85-6.91C157.25,24.13,154.73,26.79,154.73,31.37Z"/><path class="cls-1" d="M213.48,35.09H189.82c.53,4.06,4,6.65,8.57,6.65,3.26,0,6.39-1.4,7.78-4l6.18,3.33c-2.66,5.05-8.31,7.51-14.49,7.51A15.68,15.68,0,0,1,181.78,32.3a15.34,15.34,0,0,1,4.65-11.63,15.84,15.84,0,0,1,11.43-4.45,15.21,15.21,0,0,1,11.24,4.45,15.73,15.73,0,0,1,4.52,11.63C213.62,33.17,213.55,34.1,213.48,35.09Zm-7.77-5.51c-.6-4.19-3.73-6.58-7.78-6.58-4.32,0-7.58,2.52-8.18,6.58Z"/><path class="cls-1" d="M231.09,5.05V16.88h6.58V23.4h-6.58V47.92h-8V23.4H217.4V16.88h5.65V5.05Z"/><path class="cls-1" d="M251.9,47.92h-8.11v-31h8.11v7.31c1.53-5.31,5-8,8.77-8a11,11,0,0,1,5.12,1.13l-1.4,7.31a11,11,0,0,0-4.72-.87q-7.77,0-7.77,13.17Z"/><path class="cls-1" d="M269.91,4.85A5.06,5.06,0,0,1,275.16,0a4.94,4.94,0,0,1,5.12,4.85,5,5,0,0,1-5.12,4.92A5.07,5.07,0,0,1,269.91,4.85Zm9.24,12v31h-8v-31Z"/><path class="cls-1" d="M316,22.27l-6.45,4.85a7.51,7.51,0,0,0-6.45-3.06A9,9,0,0,0,297,26.39a7.45,7.45,0,0,0-2.59,5.91A8.08,8.08,0,0,0,297,38.42a8.78,8.78,0,0,0,6.11,2.39,7.56,7.56,0,0,0,6.45-3.12L316,42.47a15.93,15.93,0,0,1-13,6.12A16.74,16.74,0,0,1,291.24,44a15.43,15.43,0,0,1-4.92-11.7,15,15,0,0,1,4.92-11.56,17,17,0,0,1,11.83-4.52A16.14,16.14,0,0,1,316,22.27Z"/><path class="cls-1" d="M121.48,68.57V92.41h-2.21V89.76a6.76,6.76,0,0,1-5.83,3,7.78,7.78,0,0,1-5.66-2.25,7.93,7.93,0,0,1-2.25-5.86,7.65,7.65,0,0,1,7.91-8,6.72,6.72,0,0,1,5.83,2.88V68.57Zm-12.11,20.3a5.54,5.54,0,0,0,4.07,1.65A5.89,5.89,0,0,0,117.58,89a5.72,5.72,0,0,0,1.69-4.34,5.33,5.33,0,0,0-1.79-4.24,6,6,0,0,0-4-1.55,5.65,5.65,0,0,0-4.07,1.58,5.54,5.54,0,0,0-1.63,4.21A5.83,5.83,0,0,0,109.37,88.87Z"/><path class="cls-1" d="M126.78,70.06a1.73,1.73,0,0,1,2.38,0,1.56,1.56,0,0,1,0,2.29,1.9,1.9,0,0,1-2.38,0A1.57,1.57,0,0,1,126.78,70.06Zm.07,22.35V77H129V92.41Z"/><path class="cls-1" d="M136.25,95.19A5.25,5.25,0,0,0,141,97.94c3.84,0,6.1-2.35,6.06-8.35-1,2-3.44,3.15-5.82,3.15a8.21,8.21,0,0,1-5.66-13.87,7.78,7.78,0,0,1,5.66-2.25,6.73,6.73,0,0,1,5.82,3V77h2.22V90c0,6.79-2.75,10.16-8.28,10.16a7.53,7.53,0,0,1-6.65-3.84Zm.92-6.26a5.64,5.64,0,0,0,4.08,1.59,6,6,0,0,0,4-1.55,5.32,5.32,0,0,0,1.78-4.24,5.57,5.57,0,0,0-1.69-4.31,5.74,5.74,0,0,0-4.13-1.58,5.48,5.48,0,0,0-4.08,1.68,5.75,5.75,0,0,0-1.62,4.21A5.57,5.57,0,0,0,137.17,88.93Z"/><path class="cls-1" d="M154.55,70.06a1.75,1.75,0,0,1,2.39,0,1.57,1.57,0,0,1,0,2.29,1.91,1.91,0,0,1-2.39,0A1.57,1.57,0,0,1,154.55,70.06Zm.07,22.35V77h2.18V92.41Z"/><path class="cls-1" d="M165.41,92.41h-2.22V78.94h-2.78V77h2.78V71.16h2.22V77h3.28v2h-3.28Z"/><path class="cls-1" d="M187,77V92.41h-2.21V89.76a6.76,6.76,0,0,1-5.83,3,7.78,7.78,0,0,1-5.66-2.25A7.93,7.93,0,0,1,171,84.63a7.65,7.65,0,0,1,7.91-8,6.72,6.72,0,0,1,5.83,2.88V77ZM174.85,88.87a5.54,5.54,0,0,0,4.07,1.65A5.89,5.89,0,0,0,183.06,89a5.72,5.72,0,0,0,1.69-4.34A5.33,5.33,0,0,0,183,80.39a6,6,0,0,0-4-1.55,5.65,5.65,0,0,0-4.07,1.58,5.54,5.54,0,0,0-1.63,4.21A5.83,5.83,0,0,0,174.85,88.87Z"/><path class="cls-1" d="M194.51,68.57V92.41h-2.18V68.57Z"/><path class="cls-1" d="M223.58,77V92.41h-2.22V89.76a6.75,6.75,0,0,1-5.83,3,7.78,7.78,0,0,1-5.66-2.25,7.93,7.93,0,0,1-2.25-5.86,7.65,7.65,0,0,1,7.91-8,6.71,6.71,0,0,1,5.83,2.88V77ZM211.46,88.87a5.54,5.54,0,0,0,4.07,1.65A5.85,5.85,0,0,0,219.67,89a5.72,5.72,0,0,0,1.69-4.34,5.33,5.33,0,0,0-1.79-4.24,6,6,0,0,0-4-1.55,5.65,5.65,0,0,0-4.07,1.58,5.58,5.58,0,0,0-1.62,4.21A5.86,5.86,0,0,0,211.46,88.87Z"/><path class="cls-1" d="M230.79,95.19a5.26,5.26,0,0,0,4.77,2.75c3.84,0,6.09-2.35,6.06-8.35-1,2-3.45,3.15-5.83,3.15a8.22,8.22,0,0,1-5.66-13.87,7.78,7.78,0,0,1,5.66-2.25,6.76,6.76,0,0,1,5.83,3V77h2.22V90c0,6.79-2.75,10.16-8.28,10.16a7.55,7.55,0,0,1-6.66-3.84Zm.93-6.26a5.61,5.61,0,0,0,4.07,1.59,6,6,0,0,0,4-1.55,5.33,5.33,0,0,0,1.79-4.24,5.6,5.6,0,0,0-1.69-4.31,5.75,5.75,0,0,0-4.14-1.58,5.45,5.45,0,0,0-4.07,1.68,5.75,5.75,0,0,0-1.62,4.21A5.57,5.57,0,0,0,231.72,88.93Z"/><path class="cls-1" d="M250.32,90.49a7.91,7.91,0,0,1-2.22-5.86,7.68,7.68,0,0,1,2.22-5.79,7.57,7.57,0,0,1,5.6-2.22,7.31,7.31,0,0,1,5.46,2.18,8,8,0,0,1,2.12,5.83,8.72,8.72,0,0,1,0,1H250.36a5.63,5.63,0,0,0,10.39,2.21c.23.07.63.17,1.13.27l1.09.23a7.48,7.48,0,0,1-7.05,4.37A7.65,7.65,0,0,1,250.32,90.49Zm10.93-6.89a5.25,5.25,0,0,0-5.33-4.8,5.41,5.41,0,0,0-5.56,4.8Z"/><path class="cls-1" d="M269.82,92.41H267.6V77h2.22V79.5A5.7,5.7,0,0,1,275,76.62c3.74,0,6,2.55,6,6.78v9h-2.22v-9c0-2.88-1.35-4.6-3.74-4.6a5.44,5.44,0,0,0-3.61,1.29A4.7,4.7,0,0,0,269.82,84Z"/><path class="cls-1" d="M298.69,90.62a7.88,7.88,0,0,1-5.6,2.12,8,8,0,0,1-5.72-2.25A7.74,7.74,0,0,1,285,84.63a7.65,7.65,0,0,1,2.31-5.79,8.54,8.54,0,0,1,11.33-.14l-1.56,1.56a6.25,6.25,0,0,0-8.21.16,5.48,5.48,0,0,0-1.69,4.21,5.67,5.67,0,0,0,1.69,4.27,5.92,5.92,0,0,0,4.2,1.66,5.79,5.79,0,0,0,4-1.49Z"/><path class="cls-1" d="M306.43,99.89h-2.28l3.08-7.51L300.87,77h2.32l5.23,12.58L313.68,77H316Z"/></svg>